<mxfile host="65bd71144e">
    <diagram id="6kDpcCLhYzHzG3fjyuZW" name="Page-1">
        <mxGraphModel dx="1909" dy="617" grid="1" gridSize="10" guides="1" tooltips="1" connect="1" arrows="1" fold="1" page="1" pageScale="1" pageWidth="827" pageHeight="1169" math="0" shadow="0">
            <root>
                <mxCell id="0"/>
                <mxCell id="1" parent="0"/>
                <mxCell id="8" value="" style="edgeStyle=none;html=1;" parent="1" source="5" target="7" edge="1">
                    <mxGeometry relative="1" as="geometry"/>
                </mxCell>
                <mxCell id="5" value="" style="rounded=1;whiteSpace=wrap;html=1;fillColor=none;gradientColor=#ffffff;" parent="1" vertex="1">
                    <mxGeometry x="110" y="30" width="120" height="60" as="geometry"/>
                </mxCell>
                <mxCell id="6" value="APP" style="text;html=1;strokeColor=none;fillColor=none;align=center;verticalAlign=middle;whiteSpace=wrap;rounded=0;" parent="1" vertex="1">
                    <mxGeometry x="140" y="45" width="60" height="30" as="geometry"/>
                </mxCell>
                <mxCell id="19" value="" style="edgeStyle=none;html=1;" parent="1" source="7" target="18" edge="1">
                    <mxGeometry relative="1" as="geometry"/>
                </mxCell>
                <mxCell id="22" value="" style="edgeStyle=none;html=1;" parent="1" source="7" target="18" edge="1">
                    <mxGeometry relative="1" as="geometry"/>
                </mxCell>
                <mxCell id="23" value="" style="edgeStyle=none;html=1;" parent="1" source="7" target="18" edge="1">
                    <mxGeometry relative="1" as="geometry"/>
                </mxCell>
                <mxCell id="24" value="" style="edgeStyle=none;html=1;" parent="1" source="7" target="18" edge="1">
                    <mxGeometry relative="1" as="geometry"/>
                </mxCell>
                <mxCell id="44" value="" style="edgeStyle=none;html=1;" parent="1" source="54" target="43" edge="1">
                    <mxGeometry relative="1" as="geometry">
                        <mxPoint x="290" y="310" as="sourcePoint"/>
                    </mxGeometry>
                </mxCell>
                <mxCell id="7" value="" style="whiteSpace=wrap;html=1;fillColor=none;rounded=1;gradientColor=#ffffff;" parent="1" vertex="1">
                    <mxGeometry x="110" y="130" width="120" height="60" as="geometry"/>
                </mxCell>
                <mxCell id="55" value="" style="edgeStyle=none;html=1;fontSize=13;" edge="1" parent="1" source="9" target="54">
                    <mxGeometry relative="1" as="geometry"/>
                </mxCell>
                <mxCell id="9" value="LANDING PAGE" style="text;html=1;strokeColor=none;fillColor=none;align=center;verticalAlign=middle;whiteSpace=wrap;rounded=0;" parent="1" vertex="1">
                    <mxGeometry x="140" y="145" width="60" height="30" as="geometry"/>
                </mxCell>
                <mxCell id="36" value="" style="edgeStyle=none;html=1;" parent="1" source="18" target="35" edge="1">
                    <mxGeometry relative="1" as="geometry"/>
                </mxCell>
                <mxCell id="18" value="NAVBAR" style="whiteSpace=wrap;html=1;fillColor=none;rounded=1;gradientColor=#ffffff;" parent="1" vertex="1">
                    <mxGeometry x="600" y="130" width="120" height="60" as="geometry"/>
                </mxCell>
                <mxCell id="35" value="LINKS" style="whiteSpace=wrap;html=1;fillColor=none;rounded=1;gradientColor=#ffffff;" parent="1" vertex="1">
                    <mxGeometry x="600" y="260" width="120" height="60" as="geometry"/>
                </mxCell>
                <mxCell id="46" value="" style="edgeStyle=none;html=1;entryX=0.907;entryY=-0.016;entryDx=0;entryDy=0;entryPerimeter=0;" parent="1" source="43" target="64" edge="1">
                    <mxGeometry relative="1" as="geometry">
                        <mxPoint x="320" y="510" as="targetPoint"/>
                    </mxGeometry>
                </mxCell>
                <mxCell id="43" value="LOGIN POP UP&lt;br&gt;if yes,&lt;br&gt;User Access" style="rhombus;whiteSpace=wrap;html=1;fillColor=none;rounded=1;gradientColor=#ffffff;" parent="1" vertex="1">
                    <mxGeometry x="339" y="345" width="130" height="110" as="geometry"/>
                </mxCell>
                <mxCell id="47" value="" style="edgeStyle=none;html=1;" parent="1" edge="1">
                    <mxGeometry relative="1" as="geometry">
                        <mxPoint x="170" y="800" as="targetPoint"/>
                        <mxPoint x="240" y="630" as="sourcePoint"/>
                    </mxGeometry>
                </mxCell>
                <mxCell id="48" value="" style="edgeStyle=none;html=1;" edge="1" parent="1">
                    <mxGeometry relative="1" as="geometry">
                        <mxPoint x="439.9985225718195" y="419.343365253078" as="sourcePoint"/>
                        <mxPoint x="500" y="470" as="targetPoint"/>
                    </mxGeometry>
                </mxCell>
                <mxCell id="49" value="&lt;font style=&quot;font-size: 20px&quot;&gt;IF NO, THEN...&lt;/font&gt;" style="text;html=1;align=center;verticalAlign=middle;resizable=0;points=[];autosize=1;strokeColor=none;fillColor=none;strokeWidth=9;" vertex="1" parent="1">
                    <mxGeometry x="490" y="420" width="150" height="20" as="geometry"/>
                </mxCell>
                <mxCell id="50" value="Main page&lt;br&gt;(limited access)" style="whiteSpace=wrap;html=1;fillColor=none;rounded=1;gradientColor=#ffffff;" vertex="1" parent="1">
                    <mxGeometry x="500" y="470" width="100" height="60" as="geometry"/>
                </mxCell>
                <mxCell id="51" value="" style="edgeStyle=none;html=1;" edge="1" parent="1">
                    <mxGeometry relative="1" as="geometry">
                        <mxPoint x="549.5229381443298" y="530.004793814433" as="sourcePoint"/>
                        <mxPoint x="550" y="590" as="targetPoint"/>
                    </mxGeometry>
                </mxCell>
                <mxCell id="52" value="EVENTS&lt;br&gt;(read mode)" style="whiteSpace=wrap;html=1;fillColor=none;rounded=1;gradientColor=#ffffff;" vertex="1" parent="1">
                    <mxGeometry x="500" y="585" width="100" height="60" as="geometry"/>
                </mxCell>
                <mxCell id="53" value="&lt;div style=&quot;text-align: left&quot;&gt;&lt;span style=&quot;font-size: 13px&quot;&gt;Read-only mode will allow user&lt;/span&gt;&lt;/div&gt;&lt;font style=&quot;font-size: 13px&quot;&gt;&lt;div style=&quot;text-align: left&quot;&gt;&lt;span&gt;to browse events without&lt;/span&gt;&lt;/div&gt;&lt;div style=&quot;text-align: left&quot;&gt;&lt;span&gt;possibility to interact&lt;/span&gt;&lt;/div&gt;&lt;/font&gt;" style="text;html=1;align=center;verticalAlign=middle;resizable=0;points=[];autosize=1;strokeColor=none;fillColor=none;fontSize=20;" vertex="1" parent="1">
                    <mxGeometry x="612" y="575" width="190" height="80" as="geometry"/>
                </mxCell>
                <mxCell id="54" value="&lt;font color=&quot;#000000&quot;&gt;Already registered?&lt;/font&gt;" style="rhombus;whiteSpace=wrap;html=1;fontSize=13;strokeWidth=2;gradientColor=#ffffff;" vertex="1" parent="1">
                    <mxGeometry x="120" y="240" width="100" height="100" as="geometry"/>
                </mxCell>
                <mxCell id="56" value="&lt;font color=&quot;#ffffff&quot; style=&quot;font-size: 19px&quot;&gt;IF YES, THEN...&lt;/font&gt;" style="text;html=1;align=center;verticalAlign=middle;resizable=0;points=[];autosize=1;strokeColor=none;fillColor=none;fontSize=13;fontColor=#000000;" vertex="1" parent="1">
                    <mxGeometry x="235" y="300" width="150" height="20" as="geometry"/>
                </mxCell>
                <mxCell id="57" value="" style="edgeStyle=none;html=1;" edge="1" parent="1">
                    <mxGeometry relative="1" as="geometry">
                        <mxPoint x="130.00162790697664" y="299.99837209302314" as="sourcePoint"/>
                        <mxPoint x="20" y="370" as="targetPoint"/>
                    </mxGeometry>
                </mxCell>
                <mxCell id="58" value="&lt;font color=&quot;#ffffff&quot; style=&quot;font-size: 19px&quot;&gt;IF NO, THEN...&lt;/font&gt;" style="text;html=1;align=center;verticalAlign=middle;resizable=0;points=[];autosize=1;strokeColor=none;fillColor=none;fontSize=13;fontColor=#000000;" vertex="1" parent="1">
                    <mxGeometry x="-65" y="300" width="140" height="20" as="geometry"/>
                </mxCell>
                <mxCell id="59" value="SIGNUP PAGE" style="whiteSpace=wrap;html=1;fillColor=none;rounded=1;gradientColor=#ffffff;" vertex="1" parent="1">
                    <mxGeometry x="-70" y="370" width="100" height="60" as="geometry"/>
                </mxCell>
                <mxCell id="61" value="" style="edgeStyle=none;html=1;entryX=0.107;entryY=0.024;entryDx=0;entryDy=0;entryPerimeter=0;" edge="1" parent="1" target="64">
                    <mxGeometry relative="1" as="geometry">
                        <mxPoint x="30.001627906976864" y="394.99837209302314" as="sourcePoint"/>
                        <mxPoint x="210" y="520" as="targetPoint"/>
                        <Array as="points">
                            <mxPoint x="30" y="425"/>
                        </Array>
                    </mxGeometry>
                </mxCell>
                <mxCell id="62" value="User registers and submits details..." style="text;html=1;align=center;verticalAlign=middle;resizable=0;points=[];autosize=1;strokeColor=none;fillColor=none;fontSize=19;fontColor=#FFFFFF;" vertex="1" parent="1">
                    <mxGeometry x="-190" y="470" width="320" height="30" as="geometry"/>
                </mxCell>
                <mxCell id="64" value="Main page&lt;br&gt;(full access)" style="whiteSpace=wrap;html=1;fillColor=none;rounded=1;gradientColor=#ffffff;" vertex="1" parent="1">
                    <mxGeometry x="200" y="570" width="100" height="60" as="geometry"/>
                </mxCell>
                <mxCell id="65" value="&lt;font style=&quot;font-size: 20px&quot;&gt;IF YES, THEN...&lt;/font&gt;" style="text;html=1;align=center;verticalAlign=middle;resizable=0;points=[];autosize=1;strokeColor=none;fillColor=none;strokeWidth=9;" vertex="1" parent="1">
                    <mxGeometry x="195" y="430" width="160" height="20" as="geometry"/>
                </mxCell>
                <mxCell id="66" value="EVENT" style="whiteSpace=wrap;html=1;fillColor=none;rounded=1;gradientColor=#ffffff;" vertex="1" parent="1">
                    <mxGeometry x="130" y="810" width="100" height="60" as="geometry"/>
                </mxCell>
                <mxCell id="67" value="" style="edgeStyle=none;html=1;exitX=0;exitY=1;exitDx=0;exitDy=0;" edge="1" parent="1" source="64">
                    <mxGeometry relative="1" as="geometry">
                        <mxPoint y="620" as="targetPoint"/>
                        <mxPoint x="79.99655323819977" y="585" as="sourcePoint"/>
                    </mxGeometry>
                </mxCell>
                <mxCell id="68" value="PERSONAL DASHBOARD" style="whiteSpace=wrap;html=1;fillColor=none;rounded=1;gradientColor=#ffffff;" vertex="1" parent="1">
                    <mxGeometry x="-150" y="595" width="140" height="60" as="geometry"/>
                </mxCell>
                <mxCell id="69" value="CHAT&amp;nbsp;" style="whiteSpace=wrap;html=1;fillColor=none;rounded=1;gradientColor=#ffffff;" vertex="1" parent="1">
                    <mxGeometry x="512" y="710" width="100" height="60" as="geometry"/>
                </mxCell>
                <mxCell id="70" value="" style="edgeStyle=none;html=1;exitX=0.931;exitY=1.028;exitDx=0;exitDy=0;exitPerimeter=0;entryX=0.25;entryY=0;entryDx=0;entryDy=0;" edge="1" parent="1" source="64" target="69">
                    <mxGeometry relative="1" as="geometry">
                        <mxPoint x="460" y="750" as="targetPoint"/>
                        <mxPoint x="354.99655323819934" y="575" as="sourcePoint"/>
                    </mxGeometry>
                </mxCell>
                <mxCell id="71" value="" style="edgeStyle=none;html=1;" edge="1" parent="1">
                    <mxGeometry relative="1" as="geometry">
                        <mxPoint x="-290" y="565" as="targetPoint"/>
                        <mxPoint x="-150" y="595" as="sourcePoint"/>
                    </mxGeometry>
                </mxCell>
                <mxCell id="72" value="&lt;font color=&quot;#000000&quot;&gt;LIST OF CREATED EVENTS&lt;/font&gt;" style="whiteSpace=wrap;html=1;fillColor=grey;rounded=1;gradientColor=#ffffff;" vertex="1" parent="1">
                    <mxGeometry x="-440" y="515" width="140" height="60" as="geometry"/>
                </mxCell>
                <mxCell id="73" value="" style="edgeStyle=none;html=1;" edge="1" parent="1">
                    <mxGeometry relative="1" as="geometry">
                        <mxPoint x="-300" y="620" as="targetPoint"/>
                        <mxPoint x="-150" y="615" as="sourcePoint"/>
                    </mxGeometry>
                </mxCell>
                <mxCell id="74" value="&lt;font color=&quot;#000000&quot;&gt;EVENT SCHEDULE&lt;/font&gt;" style="whiteSpace=wrap;html=1;fillColor=grey;rounded=1;gradientColor=#ffffff;" vertex="1" parent="1">
                    <mxGeometry x="-440" y="595" width="140" height="60" as="geometry"/>
                </mxCell>
                <mxCell id="75" value="&lt;font color=&quot;#000000&quot;&gt;PERSONAL INFO&lt;/font&gt;" style="whiteSpace=wrap;html=1;fillColor=grey;rounded=1;gradientColor=#ffffff;" vertex="1" parent="1">
                    <mxGeometry x="-440" y="680" width="140" height="60" as="geometry"/>
                </mxCell>
                <mxCell id="76" value="" style="edgeStyle=none;html=1;exitX=0;exitY=1;exitDx=0;exitDy=0;" edge="1" parent="1" source="68">
                    <mxGeometry relative="1" as="geometry">
                        <mxPoint x="-300" y="705" as="targetPoint"/>
                        <mxPoint x="-160" y="650" as="sourcePoint"/>
                    </mxGeometry>
                </mxCell>
                <mxCell id="77" value="" style="edgeStyle=none;html=1;exitX=0;exitY=1;exitDx=0;exitDy=0;" edge="1" parent="1">
                    <mxGeometry relative="1" as="geometry">
                        <mxPoint x="50" y="880" as="targetPoint"/>
                        <mxPoint x="129.99999999999977" y="850" as="sourcePoint"/>
                    </mxGeometry>
                </mxCell>
                <mxCell id="78" value="&lt;font color=&quot;#000000&quot;&gt;COMMENTS&lt;/font&gt;" style="whiteSpace=wrap;html=1;fillColor=grey;rounded=1;gradientColor=#ffffff;" vertex="1" parent="1">
                    <mxGeometry x="-90" y="880" width="140" height="60" as="geometry"/>
                </mxCell>
                <mxCell id="79" value="" style="edgeStyle=none;html=1;exitX=0.1;exitY=1;exitDx=0;exitDy=0;exitPerimeter=0;entryX=0.75;entryY=0;entryDx=0;entryDy=0;" edge="1" parent="1" source="66" target="80">
                    <mxGeometry relative="1" as="geometry">
                        <mxPoint x="130" y="940" as="targetPoint"/>
                        <mxPoint x="154.99999999999977" y="910" as="sourcePoint"/>
                    </mxGeometry>
                </mxCell>
                <mxCell id="80" value="&lt;font color=&quot;#000000&quot;&gt;CHATROOM&lt;/font&gt;" style="whiteSpace=wrap;html=1;fillColor=grey;rounded=1;gradientColor=#ffffff;" vertex="1" parent="1">
                    <mxGeometry x="-20" y="970" width="140" height="60" as="geometry"/>
                </mxCell>
                <mxCell id="81" value="&lt;font color=&quot;#000000&quot;&gt;SUGGESTED ACTIVITIES&lt;/font&gt;" style="whiteSpace=wrap;html=1;fillColor=grey;rounded=1;gradientColor=#ffffff;" vertex="1" parent="1">
                    <mxGeometry x="150" y="970" width="140" height="60" as="geometry"/>
                </mxCell>
                <mxCell id="82" value="" style="edgeStyle=none;html=1;exitX=0.1;exitY=1;exitDx=0;exitDy=0;exitPerimeter=0;entryX=0.5;entryY=0.167;entryDx=0;entryDy=0;entryPerimeter=0;" edge="1" parent="1" target="81">
                    <mxGeometry relative="1" as="geometry">
                        <mxPoint x="149.99999999999977" y="970" as="targetPoint"/>
                        <mxPoint x="205" y="870" as="sourcePoint"/>
                    </mxGeometry>
                </mxCell>
                <mxCell id="83" value="&lt;font color=&quot;#000000&quot;&gt;CONFIRM ATTENDANCE&lt;/font&gt;" style="whiteSpace=wrap;html=1;fillColor=grey;rounded=1;gradientColor=#ffffff;" vertex="1" parent="1">
                    <mxGeometry x="290" y="900" width="140" height="60" as="geometry"/>
                </mxCell>
                <mxCell id="84" value="" style="edgeStyle=none;html=1;exitX=0.1;exitY=1;exitDx=0;exitDy=0;exitPerimeter=0;entryX=0.085;entryY=-0.023;entryDx=0;entryDy=0;entryPerimeter=0;" edge="1" parent="1" target="83">
                    <mxGeometry relative="1" as="geometry">
                        <mxPoint x="245" y="950.02" as="targetPoint"/>
                        <mxPoint x="230" y="840" as="sourcePoint"/>
                    </mxGeometry>
                </mxCell>
                <mxCell id="86" value="" style="edgeStyle=none;html=1;exitX=0.091;exitY=1.05;exitDx=0;exitDy=0;exitPerimeter=0;" edge="1" parent="1" source="64">
                    <mxGeometry relative="1" as="geometry">
                        <mxPoint x="-230" y="850" as="targetPoint"/>
                        <mxPoint x="30" y="660" as="sourcePoint"/>
                    </mxGeometry>
                </mxCell>
                <mxCell id="87" value="LOCATION SEARCH BAR (filter)" style="whiteSpace=wrap;html=1;fillColor=none;rounded=1;gradientColor=#ffffff;" vertex="1" parent="1">
                    <mxGeometry x="-370" y="820" width="140" height="60" as="geometry"/>
                </mxCell>
            </root>
        </mxGraphModel>
    </diagram>
</mxfile>